<mxfile host="app.diagrams.net">
  <diagram name="User Flow 1: Discover Art" id="flow1">
    <mxGraphModel dx="1434" dy="844" grid="1" gridSize="10" guides="1" tooltips="1" connect="1" arrows="1" fold="1" page="1" pageScale="1" pageWidth="1400" pageHeight="900">
      <root>
        <mxCell id="0"/>
        <mxCell id="1" parent="0"/>
        <mxCell id="title" value="User Flow 1: Visitor Discovers Indigenous Art&#xa;Persona: Emma (Tourist) wants to find art during weekend trip" style="text;html=1;strokeColor=none;fillColor=none;align=center;verticalAlign=middle;whiteSpace=wrap;rounded=0;fontSize=16;fontStyle=1" vertex="1" parent="1">
          <mxGeometry x="400" y="40" width="600" height="50" as="geometry"/>
        </mxCell>
        <mxCell id="start" value="START&#xa;Emma visits site" style="ellipse;whiteSpace=wrap;html=1;fillColor=#4caf50;strokeColor=none;fontColor=#ffffff;fontStyle=1;fontSize=12;" vertex="1" parent="1">
          <mxGeometry x="80" y="140" width="120" height="80" as="geometry"/>
        </mxCell>
        <mxCell id="step1" value="1. Landing on&#xa;Homepage&#xa;&#xa;Views hero,&#xa;featured art,&#xa;map preview" style="rounded=0;whiteSpace=wrap;html=1;fillColor=#e3f2fd;strokeColor=#1976d2;fontSize=11;" vertex="1" parent="1">
          <mxGeometry x="260" y="140" width="140" height="80" as="geometry"/>
        </mxCell>
        <mxCell id="step2" value="2. Exploring&#xa;Interactive Map&#xa;&#xa;Clicks map,&#xa;zooms to NSW,&#xa;sees markers" style="rounded=0;whiteSpace=wrap;html=1;fillColor=#e3f2fd;strokeColor=#1976d2;fontSize=11;" vertex="1" parent="1">
          <mxGeometry x="460" y="140" width="140" height="80" as="geometry"/>
        </mxCell>
        <mxCell id="step3" value="3. Viewing Art&#xa;Location&#xa;&#xa;Clicks marker,&#xa;sees popup,&#xa;clicks details" style="rounded=0;whiteSpace=wrap;html=1;fillColor=#e3f2fd;strokeColor=#1976d2;fontSize=11;" vertex="1" parent="1">
          <mxGeometry x="660" y="140" width="140" height="80" as="geometry"/>
        </mxCell>
        <mxCell id="step4" value="4. Art Detail Page&#xa;&#xa;Views gallery,&#xa;reads description,&#xa;checks visiting&#xa;guidelines" style="rounded=0;whiteSpace=wrap;html=1;fillColor=#e3f2fd;strokeColor=#1976d2;fontSize=11;" vertex="1" parent="1">
          <mxGeometry x="860" y="140" width="140" height="80" as="geometry"/>
        </mxCell>
        <mxCell id="step5" value="5. Exploring&#xa;Related Art&#xa;&#xa;Browses similar&#xa;art nearby,&#xa;plans trip" style="rounded=0;whiteSpace=wrap;html=1;fillColor=#e3f2fd;strokeColor=#1976d2;fontSize=11;" vertex="1" parent="1">
          <mxGeometry x="1060" y="140" width="140" height="80" as="geometry"/>
        </mxCell>
        <mxCell id="decision" value="Want to&#xa;browse more?" style="rhombus;whiteSpace=wrap;html=1;fillColor=#fff3e0;strokeColor=#ff9800;fontSize=11;fontStyle=1" vertex="1" parent="1">
          <mxGeometry x="1090" y="280" width="80" height="80" as="geometry"/>
        </mxCell>
        <mxCell id="step6" value="6. Browse/Search&#xa;&#xa;Uses filters,&#xa;searches keywords,&#xa;sorts results" style="rounded=0;whiteSpace=wrap;html=1;fillColor=#e3f2fd;strokeColor=#1976d2;fontSize=11;" vertex="1" parent="1">
          <mxGeometry x="860" y="280" width="140" height="80" as="geometry"/>
        </mxCell>
        <mxCell id="end" value="SUCCESS&#xa;Emma found art&#xa;for trip!" style="ellipse;whiteSpace=wrap;html=1;fillColor=#4caf50;strokeColor=none;fontColor=#ffffff;fontStyle=1;fontSize=12;" vertex="1" parent="1">
          <mxGeometry x="1070" y="420" width="120" height="80" as="geometry"/>
        </mxCell>
        <mxCell id="arrow1" value="" style="endArrow=classic;html=1;strokeWidth=2;strokeColor=#666666;" edge="1" parent="1" source="start" target="step1">
          <mxGeometry width="50" height="50" relative="1" as="geometry"/>
        </mxCell>
        <mxCell id="arrow2" value="" style="endArrow=classic;html=1;strokeWidth=2;strokeColor=#666666;" edge="1" parent="1" source="step1" target="step2">
          <mxGeometry width="50" height="50" relative="1" as="geometry"/>
        </mxCell>
        <mxCell id="arrow3" value="" style="endArrow=classic;html=1;strokeWidth=2;strokeColor=#666666;" edge="1" parent="1" source="step2" target="step3">
          <mxGeometry width="50" height="50" relative="1" as="geometry"/>
        </mxCell>
        <mxCell id="arrow4" value="" style="endArrow=classic;html=1;strokeWidth=2;strokeColor=#666666;" edge="1" parent="1" source="step3" target="step4">
          <mxGeometry width="50" height="50" relative="1" as="geometry"/>
        </mxCell>
        <mxCell id="arrow5" value="" style="endArrow=classic;html=1;strokeWidth=2;strokeColor=#666666;" edge="1" parent="1" source="step4" target="step5">
          <mxGeometry width="50" height="50" relative="1" as="geometry"/>
        </mxCell>
        <mxCell id="arrow6" value="" style="endArrow=classic;html=1;strokeWidth=2;strokeColor=#666666;" edge="1" parent="1" source="step5" target="decision">
          <mxGeometry width="50" height="50" relative="1" as="geometry"/>
        </mxCell>
        <mxCell id="arrow7" value="Yes" style="endArrow=classic;html=1;strokeWidth=2;strokeColor=#666666;" edge="1" parent="1" source="decision" target="step6">
          <mxGeometry width="50" height="50" relative="1" as="geometry"/>
        </mxCell>
        <mxCell id="arrow8" value="No" style="endArrow=classic;html=1;strokeWidth=2;strokeColor=#666666;" edge="1" parent="1" source="decision" target="end">
          <mxGeometry width="50" height="50" relative="1" as="geometry"/>
        </mxCell>
        <mxCell id="arrow9" value="" style="endArrow=classic;html=1;strokeWidth=2;strokeColor=#666666;" edge="1" parent="1" source="step6" target="end">
          <mxGeometry width="50" height="50" relative="1" as="geometry"/>
        </mxCell>
        <mxCell id="success-criteria" value="SUCCESS CRITERIA:&#xa;✓ Easy to find art relevant to location&#xa;✓ Information is clear and comprehensive&#xa;✓ Cultural context enhances appreciation&#xa;✓ User understands visit protocols&#xa;✓ Journey feels intuitive and engaging" style="rounded=0;whiteSpace=wrap;html=1;fillColor=#d5e8d4;strokeColor=#82b366;align=left;verticalAlign=top;fontSize=10;fontStyle=1" vertex="1" parent="1">
          <mxGeometry x="80" y="580" width="500" height="120" as="geometry"/>
        </mxCell>
      </root>
    </mxGraphModel>
  </diagram>
</mxfile>
